# xmcd
#
# Track frame offsets: 
#        150
#        19656
#        39169
#        57822
#
# Disc length: 1012 seconds
#
# Revision: 0
# Processed by: cddbd v1.5.2PL0 Copyright (c) Steve Scherf et al.
# Submitted via: ExactAudioCopy v0.99pb4
#
DISCID=2303f204
DTITLE=The Game - It's Okay (One Blood)
DYEAR=2005
DGENRE=Hip-Hop
TTITLE0=It's Okay (One Blood) (ft. Junior Reid) (Clean)
TTITLE1=It's Okay (One Blood) (ft. Junior Reid)
TTITLE2=It's Okay (One Blood) (Instrumental)
TTITLE3=It's Okay (One Blood) (Acapella)
EXTD=
EXTT0=
EXTT1=
EXTT2=
EXTT3=
PLAYORDER=
